Patient4_TMGait_0pt4_02_left_26_EMG.mot
version=1
nRows=30
nColumns=33
inDegrees=no
endheader
time	1LAddLong	2LGlutMax	3LGlutMed	4LIliopsoas	5LSemiMemb	6LBicFemLong	7LRecFem	8LVastMed	9LVastLat	10LGasMed	11LTibAnt	12lTibPost	13LPeroneusLong	14LSol	15LExtDigLong	16LFlexDigLong	17RAddLong	18RGlutMax	19RGlutMed	20RIliopsoas	21RSemiMemb	22RBicFemLong	23RRecFem	24RVastMed	25RVastLat	26RGasMed	27RTibAnt	28RTibPost	29RPeroneusLong	30RSol	31RExtDigLong	32RFlexDigLong
34.99	0.011902	0.10468	-0.001984	0.006866	0.011292	0.050201	0.001221	0.005493	-0.076904	0.014648	-0.082397	0.010529	0.034943	-0.057678	0.086365	-0.015106	0.00824	0.31403	0.31586	-0.15945	-0.013123	-0.00061	0.18326	-0.16342	-0.10498	-0.005493	0.05188	-0.000916	0.70236	0.092468	-0.00824	0.00885
34.991	0.010681	0.057831	-0.008698	0.013885	0.018158	0.044708	-0.000916	0.008545	-0.080414	0.003967	-0.049591	0.008392	-0.001373	-0.08606	0.36758	-0.009613	-0.001526	0.2713	0.36987	0.003967	-0.009003	0.028687	0.015411	-0.11276	-0.06546	0	0.078125	-0.005646	0.21912	-0.030212	-0.009766	0.004883
34.992	0.011749	0.073242	-0.016785	0.013428	-0.00824	0.066986	0.005798	0.008698	-0.071411	0.009613	0.029907	0.002747	0.004883	-0.036926	0.16998	-0.035706	-0.009613	0.23178	0.2626	0.15106	0.013275	0.06134	-0.02182	0.001831	-0.061646	-0.009918	0.13443	-0.000763	0.14664	-0.023804	-0.002136	-0.003052
34.993	0.006866	0.069122	-0.028687	0.013275	-0.017395	0.065002	0.001831	0.004578	-0.072632	-0.025482	0.079498	0.01236	0.065308	0.017242	0.31342	-0.014954	-0.003204	0.26764	0.28061	0.12451	0.009155	0.063324	-0.001526	0.030365	0.034637	-0.00946	0.1651	-0.000916	0.21194	0.075684	-0.003357	-0.00946
34.994	0.009308	0.057983	-0.032806	0.006866	-0.037079	0.04715	-0.009918	0.007477	-0.068817	-0.062408	0.11459	0.011292	0.063782	0.029602	0.011292	0.003815	-0.017242	0.30777	0.090485	0.1445	0.019226	0.026398	-0.28381	0.067596	0.13046	-0.004578	0.055847	0.010529	0.18356	0.051575	-0.001984	-0.006104
34.995	0.013123	0.058136	-0.041199	0.010223	-0.029144	0.027161	-0.010376	0.006866	-0.06424	-0.043945	0.082092	0.009308	0.024872	0.015717	-0.050354	-0.010986	-0.011597	0.29648	0.45792	0.11566	-0.000916	0.012512	-0.39581	0.029144	0.14679	-0.005035	-0.13702	0.006409	0.59464	-0.059052	-0.006561	-0.009155
34.996	0.018005	0.061646	-0.03418	-0.001984	-0.006714	0.020294	-0.011597	0.004425	-0.075684	-0.061646	0.076904	0.01236	-0.016785	0.022888	-0.006866	-0.025177	0.021515	0.34698	0.73074	0.033417	-0.028992	-0.037994	-0.31158	0.000305	0.1648	-0.00824	-0.2066	-0.000916	0.60318	-0.39124	-0.003967	-0.005951
34.997	0.019531	0.057526	-0.0383	-0.009766	-0.000458	0.036469	-0.020142	0.002747	-0.069275	-0.025482	0.073547	0.016785	-0.029602	-0.033722	-0.12543	-0.020905	0.023804	0.25238	0.13504	0.17731	-0.063934	-0.011139	-0.23407	-0.028534	0.11551	0.001068	-0.090332	-0.076294	-0.25177	-0.38055	0.000153	-0.006409
34.998	0.011597	0.042877	-0.011749	-0.005188	-0.02594	0.034943	0.010223	0.00351	-0.07843	-0.00351	0.032806	0.010834	-0.008392	-0.054779	-0.094604	-0.012207	0.018463	0.13809	-0.10727	0.22858	-0.045013	0.00412	-0.075684	-0.014496	0.061646	-0.001068	0.16007	0.003052	-1.161	0.13611	0	-0.006409
34.999	0.011139	0.039368	-0.024414	0.007629	-0.027466	0.011292	-0.008545	0.000916	-0.082245	0.002136	-0.009766	0.010834	0.006104	-0.039978	-0.01236	-0.017853	-0.009308	0.06424	0.016174	0.091553	-0.053558	0.020294	0	-0.067902	0.049286	-0.003815	0.39459	0.037689	-1.1874	0.35095	-0.002289	-0.000763
35	0.016632	0.072937	-0.022583	0.018005	-0.019836	0.012207	-0.005798	-0.007477	-0.081024	-0.001373	-0.027466	0.011139	0.027618	-0.047607	-0.016479	-0.011139	-0.010376	0.10254	0.18326	-0.079803	0.032043	0.010834	0.010223	-0.16342	0.022125	-0.002136	0.44022	0.012054	-0.44601	0.23636	-0.005798	0.002747
35.001	0.010529	0.081177	-0.011902	0.011597	-0.011597	0.017242	0.006561	0.004578	-0.078888	0.011139	-0.032349	0.011292	0.049591	-0.050507	-0.031128	-0.008698	-0.0177	0.15182	-0.33829	-0.05127	0.051727	-0.00946	0.023804	-0.21942	0.006256	0.000458	0.31387	-0.005188	0.084991	0.18768	-0.001678	-0.001831
35.002	0.007782	0.079956	0.019531	0.004272	-0.016022	0.028534	-0.00412	0.004578	-0.083008	0.021515	-0.075226	0.007782	0.045776	-0.058899	0.037842	-0.013123	-0.014343	0.15488	-0.085602	-0.006104	0.014954	-0.005798	0.089417	-0.1474	-0.000458	-0.001984	0.31387	-0.003052	-0.43808	0.12711	0.000153	-0.006866
35.003	0.005951	0.10086	-0.001678	-0.005188	-0.019226	0.018311	-0.006866	0.005035	-0.09491	0.012665	-0.1059	0.012665	0.053101	-0.034332	0.14481	-0.011902	0.001678	0.089569	0.48996	-0.048981	0.072632	-0.004578	-0.017242	-0.11063	-0.016479	0.002899	0.042419	-0.009308	-0.83054	0.012665	-0.008087	0.004272
35.004	0.008545	0.10574	-0.024261	0.013275	-0.028229	0.004425	-0.006714	0.007629	-0.11368	-0.005798	-0.022278	0.01236	0.021667	-0.046387	0.21683	-0.004578	0.019226	0.079956	0.50446	-0.052185	0.10941	0.001068	-0.15243	-0.18448	-0.095062	0.007324	-0.57754	-0.00061	0.23758	-0.052185	-0.002747	0.000916
35.005	0.005951	0.11719	-0.019989	0.016785	0.010834	-0.006866	-0.020599	0.005035	-0.12512	-0.045166	0.1178	0.013733	-0.008545	-0.052795	0.070038	0.001221	0.009003	0.094757	0.096741	0.037384	0.10254	0.055237	-0.33279	-0.074158	-0.026398	0.004272	-0.44327	-0.00885	1.2436	0.021362	-0.000916	-0.006866
35.006	0.009003	0.11002	0.015869	0.000458	-0.023956	0.022125	-0.022583	0.006866	-0.12909	-0.067291	0.14923	0.00885	-0.03479	-0.039825	0.050354	0.000153	-0.01236	0.060272	-0.78232	0.043488	-0.087585	0.10407	-0.26443	0.036163	0.11719	-0.000305	-0.25757	0.002289	1.2019	0.036163	-0.004272	-0.008392
35.007	0.01358	0.14343	-0.008545	0.011902	-0.007782	0.033875	-0.005341	0.003662	-0.1358	-0.031891	0.19455	0.00885	-0.053711	-0.035858	-0.018158	0.010834	-0.020142	0.068665	-0.57724	0.035095	-0.16037	0.049438	-0.15915	0.13443	0.14694	0.006256	-0.41534	0.003204	-0.49835	-0.16647	-0.005341	-0.007629
35.008	0.014191	0.12817	-0.017548	0.000458	0.048218	0.010834	-0.024109	0.00946	-0.13351	-0.0354	0.16678	0.010681	-0.034943	0.037079	0.024719	0.00412	0.000153	0.050812	0.027618	-0.057831	0.011597	-0.010681	-0.052795	0.016937	0.074463	0.001678	-0.43289	0.001831	-0.25238	-0.12512	0.00061	-0.010529
35.009	0.016785	0.16022	0.011597	-0.000305	0.044861	0.016022	-0.010529	0.008392	-0.13214	-0.02243	0.11719	0.011139	0.018616	0.024567	0.091705	0.010529	0.018616	0.039215	1.3467	-0.14038	0.016632	0.010529	-0.014496	-0.010223	0.079498	-0.001831	-0.37079	-0.003052	0.32196	0.034027	0.000763	-0.001678
35.01	0.002289	0.18509	0.006256	0.006714	0.021515	0.021362	-0.006714	0.010376	-0.13489	-0.014801	-0.1297	0.014496	0.052643	-0.023651	-0.092468	-0.001221	0.032501	-0.067596	1.2378	-0.14008	-0.093231	-0.017395	0.000305	0.000153	0.066681	0.003662	-0.05188	-0.00412	0.50156	0.029144	-0.006409	-0.01236
35.011	0.011139	0.17487	-0.005951	-0.001526	-0.006104	0.019836	-0.011444	0.009766	-0.13901	-0.045319	-0.11856	0.011597	0.063477	-0.065308	-0.159	-0.000916	0.041809	-0.14145	0.16663	-0.052032	-0.2269	-0.038147	0.037079	-0.13443	0.005798	0.015259	0.13886	-0.001221	0.58411	-0.039978	0.004272	0.003662
35.012	0.00824	0.19684	-0.036621	0.002441	-0.024872	0.017395	-0.004578	0.005341	-0.13733	-0.076447	-0.10178	0.003204	0.065308	-0.00885	-0.17273	0.006409	0.039978	-0.1358	-0.22751	-0.025024	-0.26947	-0.005188	0.036469	-0.13382	-0.027924	0.015869	0.079803	-0.001831	0.44815	-0.005493	-0.002136	0.001068
35.013	0.015717	0.23254	-0.016937	0.006714	-0.018311	0.028687	-0.016632	0.025635	-0.13718	-0.049438	-0.061493	0.008698	0.048065	-0.056915	-0.20035	0.000458	0.036316	-0.10513	-0.4129	-0.019989	-0.1033	-0.003052	0.002136	-0.1442	-0.032196	0.010834	-0.07019	-0.004272	0.50476	0.032196	-0.005951	0.001678
35.014	0.01236	0.23239	-0.042114	0.007782	-0.011292	0.033569	-0.029907	0.008392	-0.12512	0.010986	-0.02533	0.010529	-0.007019	-0.1149	-0.11704	0.001984	0.009613	-0.1181	-0.4921	0.022125	0.29236	-0.038452	0.003052	0.030823	0.012512	0.014801	0.065002	-0.003662	-0.61371	0.059509	-0.002136	0.000763
35.015	0.016174	0.22766	-0.063324	0.023956	0.022125	0.033569	-0.034943	0.007629	-0.12512	0.032196	0.017853	0.005341	-0.030975	-0.10666	-0.04425	0.007019	0.010986	-0.13107	-0.37109	0.001831	0.30792	-0.043335	-0.067139	0.037994	-0.002136	0.009308	0.15366	-0.001984	-0.84579	0.014191	-0.003662	0.001831
35.016	0.012054	0.25436	-0.063477	0.0177	0.005341	0.015106	-0.027771	0.009918	-0.10986	0.041504	0.02182	0.005188	-0.019684	-0.10574	0.010529	0.003204	0.001526	-0.10468	0.75867	-0.031891	0.17456	0.057373	-0.1712	-0.012207	-0.10056	0.00061	0.10651	-0.002747	-0.66361	0.052185	-0.004883	0.000153
35.017	0.001678	0.22827	-0.052032	0.022583	0.010986	0.012512	-0.037079	0.014343	-0.082245	0.019989	0.040436	0.003662	-0.01297	-0.085297	0.049896	-0.001678	-0.018616	-0.11215	1.1255	-0.10101	-0.2478	0.14191	-0.089264	0.027008	-0.064392	-0.014343	0.096283	-0.005341	-0.22079	0.017548	0.002289	-0.006561
35.018	0.007782	0.19913	0.004425	0.013733	0.005646	0.026703	-0.018158	0.005646	-0.049591	0.001068	0.080261	-0.002289	-0.027771	-0.013275	0.04837	0.00061	-0.020599	-0.103	0.20783	-0.083923	-0.13916	0.089111	0.033417	0.070801	-0.012054	-0.017395	0.12619	-0.001984	-0.44235	0.053711	-0.007324	0.000305
35.019	0.006409	0.1828	0.054321	0.01297	0.010376	0.019989	0.00061	0.006866	-0.011902	-0.017242	0.068207	0.002136	-0.019989	0.033569	0.016022	0.018311	-0.027466	-0.11963	0.168	0.071411	-0.069275	0.05188	-0.044861	0.14847	-0.037842	-0.003204	0.11383	-0.003662	-0.22827	0.025635	-0.001221	0.000916
